<svg xmlns="http://www.w3.org/2000/svg" xmlns:xlink="http://www.w3.org/1999/xlink" fill="none" version="1.1" width="128" height="128" viewBox="0 0 128 128"><defs><clipPath id="master_svg0_5_6"><rect x="0" y="0" width="128" height="128" rx="0"/></clipPath><clipPath id="master_svg1_5_908"><rect x="13" y="9" width="49" height="50" rx="0"/></clipPath></defs><g style="mix-blend-mode:passthrough" clip-path="url(#master_svg0_5_6)"><g style="mix-blend-mode:passthrough" clip-path="url(#master_svg1_5_908)"><g style="mix-blend-mode:passthrough"><g style="mix-blend-mode:passthrough"><path d="M26.61955,14.63697C26.61955,14.63697,26.77419,14.52079,26.77419,14.52079C29.897190000000002,12.3151,33.6134,11.0979777,37.2843,11.0342835C41.9319,10.729924,46.4804,12.46901,49.4991,15.57691C52.6216,18.20314,54.2797,22.1723,53.9614,25.9575C53.9709,28.8145,53.0461,31.5967,51.243300000000005,33.9895C49.948499999999996,35.5704,48.4436,36.9678,46.948899999999995,38.0085C46.948899999999995,38.0085,45.1586,39.4566,45.1586,39.4566C44.7422,39.7816,44.424099999999996,40.215199999999996,44.2947,40.5492C44.0981,41.0242,44.1212,41.7966,44.1503,42.4346C44.1503,42.4346,44.1503,45.868,44.1503,45.868C44.1503,45.868,30.98132,45.868,30.98132,45.868C30.98132,45.868,30.922980000000003,42.805499999999995,30.922980000000003,42.805499999999995C30.77026,40.5501,30.89576,38.2846,31.3474,35.8268C31.669800000000002,34.57,32.3268,33.5172,33.2903,32.5201C33.9442,31.8435,34.4306,31.4408,35.9867,30.2212C35.9867,30.2212,37.9525,28.6757,37.9525,28.6757C38.4765,28.2912,38.9499,27.8423,39.2033,27.5493C39.5398,27.0637,39.7388,26.496499999999997,39.7727,26.0515C39.7829,25.6384,39.645399999999995,25.2352,39.2459,24.7297C38.8501,24.1648,38.1751,23.8625,37.2869,23.9602C36.4483,24.006500000000003,35.6593,24.3707,35.1725,24.8781C34.5734,25.561999999999998,34.2318,26.4326,34.2065,27.3404C34.2065,27.3404,34.1173,30.5328,34.1173,30.5328C34.1173,30.5328,21.296157,30.5328,21.296157,30.5328C21.296157,30.5328,21.0496129,27.5158,21.0496129,27.5158C20.645154,22.5664,22.73253,17.73993,26.61955,14.63697C26.61955,14.63697,26.61955,14.63697,26.61955,14.63697Z" fill="#FFFFFF" fill-opacity="1"/></g><g style="mix-blend-mode:passthrough"><path d="M28.676780337448122,17.200750751342774C31.26037033744812,15.376020751342773,34.33481033744812,14.369108051342774,37.50001033744812,14.311037351342774C41.18741033744812,14.069562751342774,44.79601033744812,15.449330751342773,47.37671033744812,18.087360751342775C49.68621033744812,20.029680751342774,50.91241033744812,22.965170751342775,50.66901033744812,25.968410751342773C50.67611033744812,28.11111075134277,49.982710337448125,30.19781075134277,48.693710337448124,31.912010751342773C47.58811033744812,33.26181075134278,46.303310337448124,34.45491075134277,44.87471033744812,35.45851075134277C44.87471033744812,35.45851075134277,43.12981033744812,36.87051075134278,43.12981033744812,36.87051075134278C42.234810337448124,37.56901075134277,41.55111033744812,38.501010751342776,41.15441033744812,39.56321075134277C40.945010337448124,40.18671075134277,40.81131033744812,41.56191075134277,40.858110337448124,42.58421075134277C40.858110337448124,42.58421075134277,34.27357033744812,42.58421075134277,34.27357033744812,42.58421075134277C34.13905033744812,40.59711075134277,34.18376033744812,38.600910751342774,34.53691033744812,36.64061075134278C34.89911033744812,35.22861075134277,36.18311033744812,34.24351075134277,38.02681033744812,32.79861075134278C38.02681033744812,32.79861075134278,39.90341033744812,31.320910751342772,39.90341033744812,31.320910751342772C40.65041033744812,30.772810751342774,41.32511033744812,30.132910751342774,41.911610337448124,29.416310751342774C42.584710337448115,28.44501075134277,42.98281033744812,27.31061075134277,43.06391033744812,26.132610751342774C43.09341033744812,24.940210751342775,42.69661033744812,23.776190751342774,41.94451033744812,22.84882075134277C40.854410337448115,21.292810751342774,38.99511033744812,20.460180751342772,37.10491033744812,20.681540751342773C35.42791033744812,20.774110751342775,33.84970033744812,21.502450751342774,32.69329033744812,22.717470751342773C31.59075033744812,23.976040751342772,30.96216033744812,25.578410751342773,30.91548033744812,27.249110751342773C30.91548033744812,27.249110751342773,24.33098553744812,27.249110751342773,24.33098553744812,27.249110751342773C24.02671233744812,23.495040751342774,25.559570337448122,19.825660751342774,28.44632033744812,17.397780751342772" fill="#333333" fill-opacity="1"/></g><g style="mix-blend-mode:passthrough"><path d="M44.150291770935056,43.86493682861328C44.150291770935056,43.86493682861328,44.150291770935056,57.00003682861328,44.150291770935056,57.00003682861328C44.150291770935056,57.00003682861328,30.98129177093506,57.00003682861328,30.98129177093506,57.00003682861328C30.98129177093506,57.00003682861328,30.98129177093506,43.86493682861328,30.98129177093506,43.86493682861328C30.98129177093506,43.86493682861328,44.150291770935056,43.86493682861328,44.150291770935056,43.86493682861328C44.150291770935056,43.86493682861328,44.150291770935056,43.86493682861328,44.150291770935056,43.86493682861328Z" fill="#FFFFFF" fill-opacity="1"/></g><g style="mix-blend-mode:passthrough"><path d="M40.85798755432129,47.14872741699219C40.85798755432129,47.14872741699219,34.27347755432129,47.14872741699219,34.27347755432129,47.14872741699219C34.27347755432129,47.14872741699219,34.27347755432129,53.716257416992185,34.27347755432129,53.716257416992185C34.27347755432129,53.716257416992185,40.85798755432129,53.716257416992185,40.85798755432129,53.716257416992185C40.85798755432129,53.716257416992185,40.85798755432129,47.14872741699219,40.85798755432129,47.14872741699219C40.85798755432129,47.14872741699219,40.85798755432129,47.14872741699219,40.85798755432129,47.14872741699219Z" fill="#333333" fill-opacity="1"/></g></g></g><g style="mix-blend-mode:passthrough" transform="matrix(0.8638734221458435,-0.5037090182304382,0.4963001608848572,0.8681510090827942,-22.919102793966886,11.811712504480965)"><path d="M16.67629490234375,114.73926337890624C14.26420490234375,120.16316337890625,19.27384490234375,125.93886337890625,24.98412490234375,124.31756337890624L45.30342490234375,118.54866337890626C47.98162490234375,117.78826337890625,50.81872490234375,117.78826337890625,53.49702490234375,118.54866337890626L72.36002490234375,123.90416337890625C78.29922490234375,125.59036337890625,83.35422490234374,119.32146337890624,80.44742490234376,113.87456337890625L52.62072490234375,61.73176337890625C49.87662490234375,56.58962337890625,42.41752490234375,56.85737337890625,40.04912490234375,62.18306337890625L16.67629490234375,114.73926337890624Z" fill="#FFFFFF" fill-opacity="1"/><path d="M45.98622490234375,120.95356337890625L25.66692490234375,126.72256337890624Q22.86862490234375,127.51706337890624,20.170574902343752,126.64706337890625Q17.65398490234375,125.83556337890624,15.89575490234375,123.80846337890625Q14.137524902343749,121.78136337890625,13.68987490234375,119.17536337890625Q13.20994490234375,116.38136337890624,14.39200490234375,113.72346337890625L37.76482490234375,61.16716337890625Q38.92662490234375,58.55458337890625,41.27142490234375,57.04188337890625Q43.46232490234375,55.62841337890625,46.10432490234375,55.53358337890625Q48.74632490234375,55.43874337890625,51.03292490234375,56.69148337890625Q53.48012490234375,58.032183378906254,54.82632490234375,60.55476337890625L82.65302490234374,112.69756337890625Q84.07422490234374,115.36066337890625,83.72782490234376,118.27216337890626Q83.40592490234376,120.97716337890625,81.66712490234374,123.13356337890625Q79.92832490234375,125.28986337890625,77.35292490234374,126.17786337890625Q74.58092490234375,127.13356337890625,71.67722490234375,126.30906337890625L52.81422490234375,120.95356337890625Q49.40022490234375,119.98436337890625,45.98622490234375,120.95356337890625L45.98622490234375,120.95356337890625ZM44.62062490234375,116.14376337890624Q49.40022490234375,114.78666337890625,54.17982490234375,116.14366337890625L73.04282490234375,121.49916337890625Q74.43592490234374,121.89476337890625,75.72312490234376,121.45086337890625Q76.93882490234375,121.03176337890625,77.77482490234375,119.99496337890625Q78.61082490234375,118.95826337890625,78.76282490234375,117.68126337890625Q78.92372490234375,116.32926337890625,78.24192490234375,115.05166337890626L50.41512490234375,62.90876337890625Q49.77072490234375,61.70116337890625,48.63062490234375,61.07656337890625Q47.55062490234375,60.48486337890625,46.28372490234375,60.53036337890625Q45.01672490234375,60.57586337890625,43.98202490234375,61.24336337890625Q42.88962490234375,61.94816337890625,42.33342490234375,63.19886337890625L18.96059490234375,115.75516337890625Q18.39433490234375,117.02846337890625,18.61770490234375,118.32886337890625Q18.82908490234375,119.55946337890624,19.67289490234375,120.53226337890625Q20.51670490234375,121.50516337890625,21.70502490234375,121.88836337890625Q22.960824902343752,122.29326337890625,24.30132490234375,121.91266337890625L44.62062490234375,116.14366337890625L44.62062490234375,116.14376337890624Z" fill="#333333" fill-opacity="1"/></g></g></svg>